#!OML:ASF F:\VICON\USERDATA\INSTALL\rory3\rory3.ASF
:FULLY-SPECIFIED
:DEGREES
601
root 0.476907 29.635 -9.3437 -179.162 -44.458 177.432
lowerback 8.12285 2.1674 -1.72684
upperback 1.20472 2.60116 -1.50986
thorax -3.31043 1.27239 -0.871758
lowerneck -8.87632 2.07188 -5.24424
upperneck 6.84378 2.82928 6.71273
head 3.30709 1.57458 3.04476
rclavicle 1.07791e-013 -1.37161e-014
rhumerus -30.6368 10.7111 -85.1056
rradius 36.3627
rwrist 14.5057
rhand -25.1869 5.99211
rfingers 7.12502
rthumb 1.33101 -23.9835
lclavicle 1.07791e-013 -1.37161e-014
lhumerus -32.1958 16.1798 77.6184
lradius 25.7776
lwrist -0.544498
lhand -22.4499 20.9388
lfingers 7.12502
lthumb 3.97435 50.8815
rfemur -5.95603 6.93778 24.4563
rtibia 30.5013
rfoot -27.7816 -28.1443
rtoes 6.51239
lfemur -17.5294 26.2297 -22.005
ltibia 41.6812
lfoot -24.9073 22.734
ltoes -2.54991
602
root 0.461945 29.628 -9.35222 -179.455 -45.3818 177.743
lowerback 8.11526 2.12335 -1.52053
upperback 1.13118 2.56632 -1.46698
thorax -3.37515 1.25539 -0.940736
lowerneck -8.88692 2.07673 -5.22881
upperneck 7.12772 2.82089 6.72621
head 3.3949 1.57159 3.05044
rclavicle 1.14251e-013 -1.63003e-014
rhumerus -30.5866 10.5439 -85.0228
rradius 36.3102
rwrist 14.3502
rhand -25.3934 5.9158
rfingers 7.12502
rthumb 1.1316 -24.0609
lclavicle 1.14251e-013 -1.63003e-014
lhumerus -32.3184 16.6082 77.3488
lradius 25.3301
lwrist -1.06885
lhand -22.6705 21.4187
lfingers 7.12502
lthumb 3.76132 51.3653
rfemur -5.68444 6.6163 24.7886
rtibia 30.4288
rfoot -28.0933 -28.6534
rtoes 6.49747
lfemur -17.5182 26.562 -21.9419
ltibia 41.4929
lfoot -24.0233 22.8842
ltoes -5.27011
603
root 0.444402 29.6211 -9.35448 -179.762 -46.322 178.129
lowerback 8.04489 2.04805 -1.21773
upperback 1.07834 2.50226 -1.39278
thorax -3.38101 1.22296 -1.0251
lowerneck -8.93171 2.09675 -5.29989
upperneck 7.38155 2.85683 6.64638
head 3.4767 1.58484 3.04395
rclavicle -3.80921e-014 7.55382e-015
rhumerus -30.5432 10.4976 -84.8567
rradius 36.4168
rwrist 14.057
rhand -25.224 6.04101
rfingers 7.12502
rthumb 1.29522 -23.9348
lclavicle -3.80921e-014 7.55382e-015
lhumerus -32.4596 16.7335 77.2886
lradius 25.0733
lwrist -1.15227
lhand -23.1968 22.3231
lfingers 7.12502
lthumb 3.25306 52.278
rfemur -5.46336 6.26814 25.1342
rtibia 30.3191
rfoot -28.2729 -29.3056
rtoes 6.35634
lfemur -17.5218 26.4421 -21.891
ltibia 41.2898
lfoot -23.8181 22.9643
ltoes -5.75403
604
root 0.423971 29.6184 -9.35419 -180.113 -47.1684 178.523
lowerback 7.98363 1.9982 -0.926434
upperback 1.05554 2.4699 -1.31012
thorax -3.36183 1.20576 -1.09747
lowerneck -9.06096 2.0875 -5.32505
upperneck 7.69738 2.85522 6.50377
head 3.59531 1.57861 3.01135
rclavicle -3.69491e-014 4.37326e-015
rhumerus -30.4866 10.2231 -84.5898
rradius 36.5907
rwrist 13.9842
rhand -25.0854 6.25788
rfingers 7.12502
rthumb 1.42913 -23.7171
lclavicle -3.69491e-014 4.37326e-015
lhumerus -32.5345 16.9095 77.2581
lradius 24.7776
lwrist -1.03442
lhand -23.4124 22.7254
lfingers 7.12502
lthumb 3.04484 52.6834
rfemur -5.19201 6.10417 25.471
rtibia 30.1704
rfoot -28.4091 -29.9164
rtoes 5.93729
lfemur -17.4676 25.9979 -21.8504
ltibia 41.099
lfoot -23.9497 23.139
ltoes -5.03137
605
root 0.408125 29.615 -9.3561 -180.366 -47.9188 178.72
lowerback 7.98711 1.99619 -0.910666
upperback 1.02641 2.47269 -1.25119
thorax -3.39584 1.20823 -1.04667
lowerneck -9.09182 2.06776 -5.31367
upperneck 7.92774 2.82957 6.40244
head 3.67338 1.56142 2.98119
rclavicle 6.21202e-014 -4.77083e-015
rhumerus -30.3455 9.93022 -84.3747
rradius 36.669
rwrist 13.8758
rhand -25.0431 6.12252
rfingers 7.12502
rthumb 1.46991 -23.8522
lclavicle 6.21202e-014 -4.77083e-015
lhumerus -32.5465 17.3842 77.0522
lradius 24.2519
lwrist -1.26616
lhand -23.762 23.1248
lfingers 7.12502
lthumb 2.70724 53.0874
rfemur -4.89139 6.09391 25.6915
rtibia 30
rfoot -28.4422 -30.491
rtoes 5.58671
lfemur -17.3602 25.6655 -21.9079
ltibia 40.888
lfoot -24.2128 23.3899
ltoes -5.2625
606
root 0.393883 29.6104 -9.35854 -180.694 -48.6744 179.059
lowerback 7.93929 2.02272 -0.832487
upperback 1.00793 2.52178 -1.16118
thorax -3.38846 1.23346 -1.00139
lowerneck -9.05243 2.02255 -5.39722
upperneck 8.00383 2.77571 6.40004
head 3.69199 1.53154 2.99183
rclavicle -6.25426e-014 1.31198e-014
rhumerus -30.1671 9.60554 -84.1198
rradius 36.6916
rwrist 13.9077
rhand -25.1826 6.23159
rfingers 7.12502
rthumb 1.33522 -23.744
lclavicle -6.25426e-014 1.31198e-014
lhumerus -32.4581 17.9285 76.8453
lradius 23.577
lwrist -1.72659
lhand -24.2098 23.3721
lfingers 7.12502
lthumb 2.27479 53.3397
rfemur -4.60426 6.1573 26.0273
rtibia 29.8074
rfoot -28.718 -30.9477
rtoes 5.77366
lfemur -17.2703 25.3047 -21.8361
ltibia 40.6785
lfoot -24.6845 23.9292
ltoes -6.06894
607
root 0.371055 29.6069 -9.36474 -181.036 -49.6551 179.443
lowerback 7.72345 1.97387 -0.725586
upperback 1.02969 2.47831 -1.02625
thorax -3.24735 1.21327 -0.908444
lowerneck -9.12577 1.9652 -5.46576
upperneck 8.20456 2.70657 6.37001
head 3.7686 1.49451 2.99457
rclavicle 2.90971e-014 -1.03368e-014
rhumerus -30.086 9.42878 -83.7891
rradius 36.8348
rwrist 13.8744
rhand -25.5593 6.08372
rfingers 7.12502
rthumb 0.971388 -23.8938
lclavicle 2.90971e-014 -1.03368e-014
lhumerus -32.3879 18.7333 76.6557
lradius 22.8967
lwrist -2.53933
lhand -24.4922 23.6784
lfingers 7.12502
lthumb 2.00204 53.6488
rfemur -4.29204 5.95153 26.3552
rtibia 29.6321
rfoot -29.3208 -31.11
rtoes 6.45795
lfemur -17.1245 24.6769 -21.7114
ltibia 40.4339
lfoot -25.496 24.3929
ltoes -4.77405
